<svg id="Layer_1" data-name="Layer 1" xmlns="http://www.w3.org/2000/svg" viewBox="0 0 3938.83 2650.38"><path d="M3498.52,244.13C3396.33,190.79,3295,137.88,3193.63,84.9c-.73-.38-1-1.63-2.16-3.71,3.81-.44,6.94-1.1,10.07-1.1,24.63,0,49.25.14,73.87.06q124.93-.36,249.87-.85,190.95-.58,381.9-1.11h8.54c.55,2.68,1.37,4.82,1.38,7,.2,50,.16,100,.52,150,.19,25.63,1.43,51.26,1.55,76.89q1,202.44,1.67,404.89c.19,47.29.51,94.58.72,141.87.44,99.29,1,198.58,1.18,297.87.05,29.3-1.35,58.59-1.5,87.89-.32,61.64-.28,123.28-.35,184.92q0,40.45.1,80.91c.05,13.3.53,26.61.54,39.91,0,41-.13,81.94-.12,122.91q0,280.49.2,561c0,18.16,1,36.33,1.06,54.5,0,14.6-.68,29.2-1.05,43.8-.06,2.34-.09,4.67,0,7,.41,21.58,1.08,43.16,1.2,64.75q.48,79.49.53,159c0,15.65-.13,31.31-.28,47,0,2.91-.41,5.82-.68,9.36-12,.45-23.58,1.11-35.13,1.26-26.65.35-53.3.64-79.95.56-12.63,0-25.25-1.44-37.88-1.45q-237.43-.16-474.88-.07c-16,0-31.9,0-47.85,0-3.28,0-6.55-.28-11-.48-1.14-6.77-2.31-13.18-3.29-19.62-2.45-16.12-4.81-32.25-7.22-48.37A19.77,19.77,0,0,1,3228,2538c6.26-10.94,11.79-22.31,18.07-33.24a19,19,0,0,1,7.72-7.3c11.95-5.75,23.87-11.83,36.39-16,10.11-3.39,16.84-10.22,23.87-17.23,12.68-12.62,26.6-24.24,37.65-38.15,8.71-11,19.27-13.46,31.58-15.42,32.45-5.16,64.75-11.18,97.17-16.54,33.71-5.56,67.48-10.72,101.22-16.12,19.33-3.1,38.64-6.33,57.95-9.53a31.7,31.7,0,0,0,3.6-1.15,100,100,0,0,0-1.22-10.54c-8.57-38.61-17.35-77.17-25.86-115.8-5.8-26.29-11.2-52.67-16.88-79-9.3-43.2-18.57-86.41-28.08-129.57-7.22-32.79-15-65.46-22.17-98.25-6.35-28.9-12.12-57.93-18.45-86.84-6.82-31.18-14.24-62.24-21-93.44-8.9-41.26-17.29-82.63-26.1-123.91-7.77-36.43-16-72.77-23.69-109.21-8.58-40.65-16.65-81.4-25.22-122-6.52-30.91-13.55-61.71-20.25-92.58-6-27.6-11.82-55.22-17.72-82.84-2.37-11-6.13-22-6.75-33.18-.74-13.15.84-26.49,2.13-39.68,2.16-22.14,4.82-44.23,7.42-66.33,1.4-11.89,3.24-23.73,4.66-35.62,2.52-21.13,4.86-42.28,7.3-63.41,1.72-14.86,3.53-29.72,5.22-44.59,2.1-18.52,4.09-37.06,6.17-55.58,2.82-25.11,5.57-50.23,8.54-75.32,3.79-32,7.87-64,11.62-96,2.4-20.44,4.29-40.94,6.66-61.38,1.92-16.51,4.34-33,6.33-49.46,5.79-47.85,11.35-95.73,17.24-143.56,2.89-23.43,6.52-46.76,9.39-70.19,2-16.17,3.09-32.45,4.86-48.66,1.4-12.89,3.21-25.74,4.83-38.61q3.32-26.22,6.57-52.44A30.11,30.11,0,0,0,3498.52,244.13Z" transform="translate(-31.49 -25.31)"/><path d="M237,2628.41c-53.45.19-105.61.17-158.89,0-.54-5.93-1.42-10.78-1.36-15.61.42-30.31,1.13-60.61,1.57-90.92q.7-48.49,1.07-97c.12-14.28,0-28.57,0-42.85q.15-128.93.28-257.84c0-27.66-.85-55.32-1.06-83-.08-10,.82-19.91.75-29.86-.07-10.59-1.17-21.18-1.1-31.77.11-19.56.88-39.11,1.13-58.67.21-15.62,0-31.24.06-46.86q.19-77,.43-153.94c.1-36.31.09-72.61.33-108.91.11-15.56.84-31.12,1-46.68.07-5.62-.91-11.25-.85-16.87.17-14,1-27.91,1-41.87q.1-256.5.08-513c0-50.63.51-101.25.67-151.88.11-35.32-.18-70.63.1-105.95.15-19.32,1.8-38.64,1.56-58-1.24-99.6,1-199.19.27-298.78-.07-9.93-1.72-19.84-1.88-29.78-.3-18-.74-36,.16-53.87,1.64-32.53.46-65.06-.59-97.5-1.23-38,2-75.91.44-113.87-.08-1.9.41-3.83.77-7,113.14-1.37,225.88,1.23,338.62,1.39,112.52.17,225,1.62,338.88,2.51-.85,3.53-1.07,6.46-2.24,9Q731,147.38,703.54,205.56q-26.77,56.87-53.6,113.7c-8.64,18.32-17.11,36.72-26,54.91-3.15,6.46-3.28,12.08-.37,18.86q26,60.57,51.13,121.48c20.4,49.09,40.54,98.28,60.93,147.38,4.58,11,9.55,21.93,14.67,32.74,3.17,6.69,3.42,12.64.65,20-14.26,37.54-27.81,75.35-41.55,113.09q-26.13,71.69-52.13,143.42c-11.48,31.88-22.46,63.94-34,95.82-10.16,28.17-20.76,56.19-31.08,84.3q-12.9,35.08-25.58,70.25c-10.56,29.34-21,58.72-31.49,88.08-8,22.49-16.31,44.9-24,67.5-1.91,5.58-2.35,11.71-3.06,17.64q-4.62,38.61-9,77.24c-3.86,33.7-7.61,67.42-11.52,101.12-1.72,14.84-3.81,29.63-5.58,44.46-2.32,19.49-4.41,39-6.73,58.5q-2.65,22.26-5.67,44.49c-2.72,20.07-6,40.06-8.37,60.17-3.47,29.6-6.14,59.3-9.51,88.92-2.75,24.11-6.08,48.16-9,72.25-1.66,13.54-2.95,27.11-4.6,40.64-3.21,26.42-6.65,52.81-9.83,79.23-1.46,12.19-2.4,24.45-3.84,36.64-3.92,33.34-8.1,66.64-11.94,100-3.15,27.4-6,54.84-8.87,82.27a33.52,33.52,0,0,1-7.29,18q-58.74,74.61-117,149.56c-9.41,12-18.85,24-28.58,35.78-5.13,6.19-7.28,12.88-7.58,20.92-1.24,32.51-3,65-4.58,97.51C238.12,2610.62,237.58,2618.84,237,2628.41Z" transform="translate(-31.49 -25.31)"/><path d="M2501.09,82.62A50.66,50.66,0,0,1,2495.3,87c-38.86,21.68-77.87,43.1-116.62,65-24.57,13.87-48.63,28.63-73.18,42.54-18.75,10.64-38,20.4-56.86,30.88-24.94,13.86-49.79,27.87-74.43,42.26-3.37,2-6.05,6.07-7.73,9.79-11.53,25.43-22.66,51-34,76.54q-42.78,96.15-85.65,192.27Q2005,640.12,1963.1,734c-2.7,6-5.09,12.24-7.81,18.29-1.18,2.63-2.83,5.06-4.68,8.31-8.58-3.53-16.51-6.75-24.41-10q-83.73-35.06-167.45-70.14c-17.77-7.46-35.76-14.47-53.11-22.81-7.26-3.5-13.29-9.73-19.55-15.1q-31.24-26.81-62.21-53.92c-41.81-36.82-86.73-69.72-130.6-103.93a189.34,189.34,0,0,1-30.72-30.82c-18.29-22.67-37-45-54.73-68.1-8.2-10.72-14.24-23.07-21.48-34.54-8.69-13.78-18-27.21-26.32-41.18-4.23-7-7-15-10.48-22.49-3.26-6.91-6.52-13.84-10.06-20.61-11.53-22.08-22.68-44.14-28.88-68.63-4.55-18-12.63-35-18-52.79-3.89-13-6.16-26.44-8.65-39.78-1.45-7.75-1.9-15.68-2.93-24.68,4.28-.58,7.73-1.42,11.19-1.47,24.25-.38,48.51-.8,72.77-.78,10.61,0,21.22,1,31.83,1.58,2.33.12,4.7.62,7,.34,39.52-4.7,79.1,1.06,118.69-.75,27.85-1.28,55.83.48,83.75.64,19.62.1,39.24-.33,58.86-.33q174.42-.06,348.85.07c44.29.09,88.58,1.61,132.88,1.63,41.3,0,82.59-1.31,123.9-1.63,15.24-.12,30.48,1.13,45.74,1.37,9,.14,17.94-.64,26.92-.7,6.29,0,12.58.66,18.87.66,37.65,0,75.3,0,112.95-.21,8.24-.05,16.47-1,24.71-1.54Z" transform="translate(-31.49 -25.31)"/><path d="M1971.41,1374.77c1.55,10.56,2.7,19.09,4.09,27.59.94,5.79-1.68,9.34-6.43,12.15q-26.5,15.75-52.89,31.72-24.72,14.91-49.35,30a22.78,22.78,0,0,0-4,3c-13.16,12.72-26.25,25.53-39.45,38.23-14.1,13.57-28.35,27-42.42,40.59-14.81,14.34-29.37,28.93-44.21,43.23-22.48,21.66-45.18,43.1-67.66,64.76-12.94,12.47-25.6,25.22-38.45,37.78-5.69,5.57-11.34,11.2-17.39,16.36-2.12,1.81-5.29,2.81-8.13,3.31q-49.54,8.76-99.14,17.23c-14.39,2.47-28.78,4.92-43.22,7a25,25,0,0,1-9.8-1c-38.19-10.27-76.33-20.75-114.53-31-11.79-3.16-23.72-5.76-37.14-9-.67,9.31-1.57,17.45-1.78,25.61-.81,32.27-1.27,64.55-2.14,96.81-.33,12.3-1.29,24.58-2.19,36.86-.41,5.44,1.4,9.14,5.63,12.9,11.12,9.89,21.51,20.6,32.33,30.82,13.28,12.54,26.71,24.91,40.08,37.35,7.28,6.77,14.53,13.58,21.86,20.3q35.2,32.27,70.49,64.44c9.07,8.24,18.36,16.23,28.3,25,14.41-6.37,29-12.67,43.52-19.24q77.68-35.19,155.3-70.51,76.71-34.8,153.45-69.55c17.25-7.83,34.61-15.44,51.54-23.91,6.39-3.2,11.94-8.27,17.49-12.94,15.94-13.43,31.6-27.2,47.55-40.62,12.66-10.65,26-20.56,38.31-31.56,16-14.28,31.36-29.33,47-44a67.06,67.06,0,0,1,6.09-5.07,304,304,0,0,0,31.59-27.38c12.92-12.72,27.12-24.15,41.08-35.76,16.51-13.73,33.47-26.92,50-40.64,7.15-5.93,13.64-12.64,20.49-18.92,14.62-13.41,29.19-26.89,44-40.12q22.5-20.14,45.38-39.85c12.72-11,25.47-22,38.53-32.61,7.4-6,11.79-13,12.2-22.71.25-5.91,2.2-11.74,3-17.66,1.63-12.16,3-24.36,4.47-36.54,1.46-11.86,2.88-23.73,4.44-35.57q3.9-29.69,8-59.33c1.64-11.85,3.28-23.71,5.34-35.5,1.52-8.68,0-15.82-5.52-23.23-13.66-18.39-26.26-37.56-39.34-56.38-13.84-19.93-27.77-39.79-41.61-59.72q-27.87-40.15-55.68-80.34c-13.85-19.92-27.88-39.72-41.69-59.67-3-4.26-6.26-5.89-11.67-5.51-20.56,1.43-41.17,2.16-61.74,3.39a220.15,220.15,0,0,0-23.78,2.57,11.3,11.3,0,0,0-6.76,4.77c-13,20.42-26.84,40.46-38.42,61.7-19.73,36.19-42.32,70.6-63.49,105.89-17.92,29.88-35.65,59.87-53.54,89.78-2.48,4.15-5.36,8.08-9.09,13.65-1.18-3.83-2.4-5.67-2.16-7.29,4.21-27.88,6-56.07,11.9-83.77,3.71-17.48,4.65-35.53,7-53.32,3-23,6.24-46.07,9-69.15.65-5.36,3.64-8.26,7.64-10.9q42-27.72,84-55.5c32.69-21.66,65.78-42.76,97.81-65.36,11-7.76,20.09-10.31,33.57-6.85,29.58,7.59,59.81,12.63,89.76,18.76,31.91,6.54,63.78,13.3,95.74,19.56,5.26,1,8.18,3.63,10.59,7.91,28,49.73,55.92,99.57,84.29,149.12,24.9,43.48,50.36,86.65,75.57,130,2.51,4.3,4.52,9,7.58,12.87,11.18,14.09,9.18,30.57,9,46.71-.44,33-1.18,65.92-1.59,98.88-.39,32.3-1,64.61-.56,96.9a261.74,261.74,0,0,1-6.82,65.23c-8,33.61-15.05,67.46-22.31,101.25q-13.71,63.86-27.11,127.79-14.13,66.82-28.29,133.66c-.68,3.17-2.29,6.14-3.42,9.07l-46.31,3.22c-21.88,1.53-43.76,3.11-65.64,4.56-17.57,1.17-35.15,2.14-52.71,3.26q-44.28,2.85-88.55,5.79-32.8,2.18-65.6,4.47c-27.49,1.94-55,3.8-82.46,6-5.91.48-11.68,2.5-17.55,3.68-20.51,4.13-41.07,8-61.55,12.33-18.55,3.9-37,8.32-55.55,12.26-24,5.11-48.16,10-72.25,14.91a41.87,41.87,0,0,0-4.91.8c-32.87,11-67.1,16.3-100.73,24.12-44.34,10.32-88.8,20.15-133.22,30.15-34.7,7.81-69.43,15.47-104.09,23.45-5.92,1.36-10.32,1.13-15.42-3.23-26.38-22.58-53.27-44.57-79.88-66.88q-47.55-39.87-94.93-79.93-16.35-13.73-32.91-27.21c-6.48-5.3-10.85-10.54-8.37-20.33,2.07-8.15.9-17.11,1.25-25.72,1-24.55,2.94-49.09,2.92-73.64,0-47-1.11-94-1.86-141-.09-5.8-.78-11.59-1.24-18.1,4-.18,6.56-.62,9.08-.38,40.65,3.8,81.28,7.75,121.92,11.55,32.07,3,64.14,5.82,96.21,8.77,14.9,1.37,29.78,3.07,44.71,4.1a21.9,21.9,0,0,0,11.19-2.53c25.49-13.64,50.79-27.65,76.21-41.43,12.84-6.95,25.52-14.32,38.81-20.29,15.5-7,25.79-19.46,36.78-31.39,10.31-11.21,20.56-22.48,30.89-33.68q19.2-20.85,38.5-41.62c9.49-10.19,19.14-20.23,28.63-30.42q21.36-22.93,42.6-46c5.38-5.84,10.63-11.81,16.06-17.6a12.53,12.53,0,0,1,4.75-3.36c9.45-3.2,18.93-6.36,28.51-9.14,19.13-5.56,38.32-10.89,57.51-16.24C1951.42,1380.07,1960.66,1377.66,1971.41,1374.77Z" transform="translate(-31.49 -25.31)"/><path d="M494.7,2626c2.9-4.09,4.52-6.9,6.64-9.27,12.34-13.81,24.84-27.47,37.2-41.26,20.07-22.39,40-44.9,60.11-67.26,18.58-20.64,37.39-41.07,56-61.73,16.12-17.95,31.95-36.15,48-54.14,17.72-19.82,35.63-39.47,53.36-59.28,19.84-22.16,39.54-44.44,59.35-66.62,6.62-7.41,13.7-14.43,20-22.07,3.09-3.75,6.5-4.39,10.57-3.49,3.22.71,6.29,2.07,9.46,3q39,12,78,23.91c19.35,5.95,38.66,12,58,18a75.29,75.29,0,0,0,13.52,3.29c18.3,2,35.71,7.65,53.3,12.67,27.13,7.73,54.44,14.85,81.63,22.41q64.72,18,129.4,36.24,60,16.79,120,33.53c35.2,9.78,70.45,19.39,105.67,29.12q57.15,15.78,114.28,31.63,40.24,11.09,80.56,21.95c19.2,5.21,38.46,10.23,57.63,15.53,5.38,1.49,9.5.36,13.6-3.44q20.38-18.91,41.18-37.38c14.54-13,29.25-25.75,43.88-38.63,5.19-4.57,10.59-8.94,15.43-13.85,3.94-4,8-4.88,13.48-4,26.28,4,52.62,7.57,78.92,11.41,13.81,2,27.57,4.41,41.39,6.4,18.37,2.65,36.8,5,55.18,7.63,6.57.95,13,2.71,19.6,3.65,12.49,1.77,25.09,2.84,37.53,4.89,17.38,2.88,34.88,5.54,51.93,9.85,17.57,4.45,35.48,5.15,53.25,7.44s35.63,4,53.39,6.46c14.79,2.05,29.45,5.13,44.25,7,5.13.66,8.38,2.73,11.62,6.43q30.45,34.77,61.28,69.22c22.47,25.15,45.12,50.14,67.62,75.26,2.33,2.6,4.15,5.65,7.42,10.16-5.77.51-9.57,1.14-13.37,1.14-58,0-116-.06-173.93,0-19.28,0-38.56.56-57.84.71-14.93.11-29.87,0-44.8,0q-253.36,0-506.73,0c-25.52,0-51,1.06-76.57,1.14-18.55.06-37.09-.91-55.64-1-10.63-.06-21.26,1-31.89,1.05q-297.37.47-594.76.82c-46,.09-92,1.09-137.93,1.36-59.62.35-119.23.4-178.84.55-20.28.05-40.55-.08-60.83.1-7.3.06-14.59.95-21.89,1.15C501,2627.81,498.66,2626.85,494.7,2626Z" transform="translate(-31.49 -25.31)"/><path d="M2708.07,974c-2.32-16.59-4.37-32.67-6.87-48.69-3.12-20-6.74-40-9.93-60-3.81-24-7.28-48-11.08-72-6.77-42.67-13.82-85.29-20.49-128-5.59-35.81-10.77-71.69-16.21-107.53-3.74-24.61-7.62-49.2-11.45-73.8-1-6.21.85-10.4,6.75-13.88q70.78-41.65,141.22-83.92c9.11-5.44,18-11.19,27.1-16.73,2-1.19,4.12-2.07,7-3.48,7,6.32,14.29,12.52,21.2,19.08q25.66,24.35,51.06,49,18.63,18,37.11,36.08c30.14,29.58,60.07,59.38,90.44,88.73,12.84,12.39,26.68,23.75,39.86,35.79,11.28,10.32,22.34,20.9,33.39,31.47,6.71,6.43,13.18,13.11,19.83,19.6,5.72,5.57,6,6.57,1.95,13.5-9.33,16.08-18.63,32.19-28.16,48.15a50.26,50.26,0,0,0-6.11,17.64c-3.71,21-8.2,41.79-12.31,62.68-3.28,16.63-6.3,33.31-9.77,49.91a26.9,26.9,0,0,1-4.57,10.73c-15.85,20.43-32,40.62-48.08,60.88-12.76,16.09-25.83,32-38.1,48.4-4.3,5.77-9.18,6.88-15.43,6.25q-20.79-2.13-41.56-4.22c-19.16-1.92-38.31-3.87-57.47-5.72-13.54-1.32-27.1-2.44-40.65-3.74-13.08-1.26-24.73,4.19-36.8,7.7-18.5,5.37-37,10.81-55.51,16.09C2712.64,974.4,2710.6,974,2708.07,974Z" transform="translate(-31.49 -25.31)"/><path d="M3945.76,45.94c-5.37-.51-10.27-1.37-15.17-1.38-56.32-.08-112.64-.23-169,0q-257.85,1-515.71,2.31-167.94.68-335.89.9-230.86.23-461.71.13c-21.27,0-42.68,3.06-63.79,1.51-40-2.95-79.9-1.41-119.83-1.46q-419.32-.57-838.65-.51c-177.28-.13-354.56-.11-531.84-.91C706,45.67,517.71,43.86,329.45,42.62c-30-.19-60,.68-89.95.63-16.59,0-33.17-1.29-49.76-1.37-43.66-.21-87.31-.08-131-.05-2.3,0-4.59.29-7.84.5-.3,11.41-.81,22.63-.85,33.85-.18,42.32-.36,84.64-.22,127,.06,17.66,1.29,35.31,1.34,53,.06,19.94-.85,39.88-.9,59.82-.18,72.89,0,145.77-.33,218.65-.2,42.25-1.56,84.49-1.76,126.73-.33,72-.14,144-.2,215.92,0,25.64-.2,51.28-.21,76.91q0,119,0,238c0,20.88-.85,41.77-.71,62.66.25,39.21,1,78.43,1.4,117.64.14,14.67-.44,29.34-.25,44,.14,10.29,1.4,20.57,1.5,30.86q.41,43.92.21,87.85c-.09,20.26-.74,40.53-1,60.79q-.37,31.44-.43,62.88c-.25,99-.75,198-.44,296.94.07,21.56-.44,43.09-.54,64.63-.16,37.27,1.05,74.53,1.12,111.8.09,43.64-.46,87.29-.69,130.93-.11,22.3,0,44.6-.22,66.89-.55,47.26-1.58,94.52-1.82,141.79-.11,19.94,1.33,39.89,2,59.85.36,11.28.74,22.57.69,33.85-.11,27.33-.47,54.66-.72,82,0,3,0,5.94,0,10,3.7.29,6.88.74,10.07.75,19.6.09,39.21-.11,58.81.16,14,.2,27.9,1.24,41.85,1.39,7.62.08,15.24-1,22.86-1.37,3.65-.19,7.31-.06,11,0,9.93.17,19.9,1,29.79.4,11.2-.62,12-.36,11.49,11a58.61,58.61,0,0,1-1,5.88c-22.05-.63-43.84-1.59-65.64-1.78-22.31-.19-44.62.47-66.93.59-22,.12-43.94,0-67,0-.5-5.05-1.17-8.88-1.2-12.72-.07-12.33.23-24.66.15-37-.14-21.65-.66-43.3-.66-64.95,0-82.86.24-165.73.24-248.59q0-171-.16-342c0-28.64.55-57.28.56-85.92,0-22.63-.55-45.26-.62-67.89,0-11,.86-22,.66-33-1.36-74.58,0-149.16.93-223.74.12-9.32-.3-18.65-.22-28,.17-20.59.65-41.18.71-61.77,0-13.65-.53-27.29-.68-40.93-.07-7.18.32-14.36.27-21.54-.06-9.6-.38-19.2-.52-28.8-.19-13.57-.5-27.13-.45-40.7q.55-163.42,1.23-326.86c.09-24.56,0-49.13,0-73.69q0-134.88,0-269.76.18-135.91.68-271.82c.06-27.6-.15-55.19-.07-82.79,0-6.3.9-12.6,1-18.9.1-4.62-.34-9.25-.59-13.87-.13-2.31-.55-4.62-.53-6.93.28-31.18.86-62.36.86-93.54,0-47.66-.43-95.32-.64-143,0-2.93.25-5.86.43-9.62,4.3-.36,8.18-1,12.06-1,78,.25,155.94-.52,233.86,1.26,54.29,1.23,108.55.13,162.82.85,40.64.54,81.28.44,121.92.79,473.14,4,946.3,1.25,1419.45,2.3q158,.34,315.91.29,282.42.22,564.83.38,222.43-.09,444.86-.94,318.89-.93,637.77-2.07c2,0,4-.11,6,0,7.12.53,8.67,2,8.73,9.25.16,21,.11,42,.2,63,.14,33,.21,66,.53,99,.2,19.63,1.06,39.26,1.18,58.9q1.13,187,2,373.92c.23,48.6,0,97.2.35,145.8.21,29.85,0,59.76,2.07,89.51,1.32,19.41.05,38.6.1,57.89.06,20,.9,39.9,1,59.85,0,12.29-.85,24.59-1,36.89-.33,38.65-.63,77.31-.69,116q-.63,365.49-1.14,731c-.06,33-.48,65.93-.5,98.9q0,52.93.42,105.88c.12,15.92.87,31.84.93,47.76.24,61.22-.37,122.45.63,183.65,1,59.94-.89,119.83-.68,179.75.11,29.64,1,59.28,1,88.92,0,21.57-.78,43.14-1.1,64.71-.08,5.65,1,11.4.25,16.91-1.19,8.33-1.2,10-10.21,10.17-40.58.94-81.16,2.2-121.75,2.71-27.63.34-55.27-.39-82.91-.59-17.94-.14-35.89,0-53.82-.33-27.63-.44-55.25-1.28-82.88-1.64-24.61-.32-49.23-.31-73.84-.3q-140.46.07-280.92.26c-8.58,0-17.17,0-26.63,0V2651c4.3-.35,8.78-1,13.26-1q140,0,279.91.28c54.62.15,109.24.75,163.85,1.13,3.66,0,7.33-.29,11-.25,12.28.14,24.57.37,36.85.58,1.66,0,3.33.2,5,.19q101-.82,201.91-1.67c1.61,0,3.22-.32,4.84-.48a13,13,0,0,0,1-3.14c.45-61.25,1.25-122.51,1.17-183.77-.16-110.33-.92-220.65-1.31-331-.27-76.33-.3-152.66-.54-229-.05-12.94-.88-25.87-.91-38.81,0-12.18.57-24.36.84-36.53.05-2.33-.07-4.66-.18-7-.43-9-1.11-17.93-1.25-26.9-.17-11,.12-21.92.18-32.87.12-21.94.14-43.87.37-65.81.18-17.55.84-35.09.85-52.64,0-11.88-1-23.75-1-35.62,0-10.28,1.11-20.55,1.12-30.83q.14-187,.06-374,0-76.46,0-152.9c0-17.62.66-35.25.45-52.87-.23-18.26-1.38-36.52-1.68-54.78-.23-13.93.16-27.88.41-41.81.28-15.29.84-30.58,1-45.88.11-8.62-.42-17.25-.47-25.88q-.84-147-1.65-294c-.47-64.47-1.41-128.95-2.06-193.42-.18-18.62.11-37.24-.12-55.85-.2-16.64-1-33.27-1.18-49.91-.22-18.94.15-37.89-.15-56.83-.34-21.27-1.18-42.53-1.71-63.79-.11-4.66.23-9.33.31-14q.42-24.24.76-48.49A53.72,53.72,0,0,0,3945.76,45.94Z" transform="translate(-31.49 -25.31)"/><path d="M1090.77,659c5.66,3.2,10.23,5.6,14.62,8.3,14.14,8.69,28.29,17.36,42.29,26.27,24.11,15.33,48.08,30.88,72.16,46.26,5.78,3.69,9.66,8.63,12.78,14.79,10.53,20.75,21.69,41.19,32.4,61.86,12.38,23.89,24.38,48,36.84,71.85,21.11,40.41,42.58,80.64,63.65,121.07,13.66,26.23,26.82,52.73,40.39,79,2.14,4.15,2.95,7.91,1.08,12.31-10.82,25.4-21.71,50.77-32.15,76.32a19.8,19.8,0,0,1-9.09,10c-25.27,14.6-50.65,29-75.88,43.7a21,21,0,0,1-14.25,3q-57.3-8.44-114.62-16.76c-16.47-2.4-32.92-5-49.42-7.06-5.66-.72-8.53-2.79-10.3-8.66-13.25-43.9-27.06-87.64-40.51-131.48-10.22-33.31-20.66-66.57-29.87-100.16-2.07-7.54-.36-16.55,1.22-24.58,8.77-44.66,18-89.25,27.15-133.84,5.42-26.34,11.21-52.6,16.59-79,4.19-20.52,8-41.12,12-61.68C1088.47,667.37,1089.44,664.2,1090.77,659Z" transform="translate(-31.49 -25.31)"/><path d="M3087.39,1504.76c1.42,8.42,2.69,15.19,3.7,22,3.88,26.32,8.63,52.55,11.2,79,2.06,21.19,10.23,40.48,15.46,60.65,6.43,24.75,13.78,49.26,20.26,74a21,21,0,0,1-1.15,12.37c-11.26,27.33-22.87,54.52-34.49,81.71q-23.1,54-46.36,108c-4.19,9.75-4.15,9.77-14.83,8.52q-56.38-6.62-112.76-13.26c-2.23-.26-4.4-1.1-8-2,1.08-10.39,2.07-20.54,3.21-30.67,3.24-29,6-58.17,10.12-87.1,1.45-10.22,1.35-19.76-1.79-29.37a69.65,69.65,0,0,0-5.12-12.71c-4.73-8.38-10.24-16.33-14.86-24.76a20.63,20.63,0,0,1-2.23-10.28,188.66,188.66,0,0,1,2.11-20.79,201.49,201.49,0,0,1,3.9-21.49c7.8-30.22,16.44-60.24,23.6-90.61,3.57-15.12,13.51-24.35,24.29-33.81,20.75-18.19,45.26-30,69.59-42.22,13.63-6.84,27-14.23,40.55-21.24C3077.6,1508.71,3081.64,1507.24,3087.39,1504.76Z" transform="translate(-31.49 -25.31)"/><path d="M908.61,1519.19c-1.32,13.53-3,27-3.85,40.6-.83,13.28-1.69,26.67-.94,39.92.85,15.07-3.9,28.87-7.36,43-7.35,30-15.23,59.87-22.87,89.8-3.78,14.78-7.23,29.66-11.42,44.33a29.33,29.33,0,0,1-6.95,11.65c-12.45,13-25.34,25.52-38,38.29-7.42,7.49-8.39,7.69-16.54,1.52Q752.31,1791.63,704,1755a35.34,35.34,0,0,1-14.08-21.8c-7.5-33.41-16-66.59-24.09-99.86-4.09-16.74-8.33-33.44-12.26-50.21-2.68-11.43-2.36-11.69,7.18-17.62q28.31-17.58,56.54-35.26,43.51-27.11,87-54.19c4.78-3,9.27-6.47,13.81-9.82,3.59-2.65,7.09-3,11.11-.79,23.8,13.2,47.55,26.5,71.57,39.29C907.13,1508.1,909.37,1512.48,908.61,1519.19Z" transform="translate(-31.49 -25.31)"/><path d="M2448.68,2666.51c-6.18.24-12.7.76-19.22.69q-31.46-.33-62.89-1c-17.29-.41-34.57-1.37-51.86-1.58-22.66-.28-45.32-.24-68,0-18.57.18-37.14,1.13-55.71,1.2-13.81,0-27.63-1-41.44-1.08-8.27-.06-16.55,1-24.83,1.06-52.65.1-105.29,0-157.94.07-78.29.16-156.59-.6-234.86.89-262.49,5-525,1.65-787.52,3.85-33.64.28-67.28-.66-100.92-.52-54.63.23-109.26,1-163.89,1.33q-87.47.59-174.93.86c-3.27,0-6.55-.31-10.4-.51v-12.95a81.58,81.58,0,0,1,8.63-1.12c21.28-.55,42.56-1.27,63.84-1.41,35.32-.22,70.64,0,106-.08q60-.21,119.91-.71c56.87-.4,113.74-.94,170.61-1.24,64.63-.35,129.26-.48,193.89-.75,97.23-.4,194.47-1.06,291.7-1.19q219.26-.32,438.5-.05c31.62,0,63.24.16,94.86.07q81.93-.23,163.86-.66c9.33,0,18.66.26,28,.11,20.24-.33,40.48-.92,60.72-1.21,4.95-.07,9.92.94,14.87.88,47-.5,93.95-1.26,140.93-1.64,16-.12,32,.44,47.94,1.07C2450.19,2651.31,2451.1,2652.85,2448.68,2666.51Z" transform="translate(-31.49 -25.31)"/><path d="M362.67,2592.3c-1.48-1.22-3.75-2.26-4.42-3.93-.5-1.25.64-4.36,1.8-4.85a99.53,99.53,0,0,1,15.62-5.06c1.12-.26,3.9,1.91,4,3.14.17,1.87-.78,5-2.17,5.66C373.1,2589.33,368.25,2590.5,362.67,2592.3Z" transform="translate(-31.49 -25.31)"/><path d="M2487,2517.15c1.18-5.82,2-10,2.89-14.18.69-3.2,2.75-4.18,5.86-3.56,3.34.67,4.28,3,3.78,5.83-.73,4.2-1.45,8.51-3.12,12.37-.79,1.83-3.84,3.84-5.71,3.7C2489.12,2521.19,2487.77,2518.09,2487,2517.15Z" transform="translate(-31.49 -25.31)"/><path d="M399.58,2579.53c5,2,9.2,3.19,12.76,5.38,1.71,1.06,3.49,4.38,3,6.09-.87,3.24-4.14,3.86-7.32,2.7-3.38-1.23-7-2.22-9.95-4.12-1.79-1.15-3.76-4-3.51-5.79S397.89,2580.87,399.58,2579.53Z" transform="translate(-31.49 -25.31)"/><path d="M2596.88,2453.57c-5.91-.83-10-1-13.72-2.13-1.53-.49-3-3.16-3.24-5-.12-1.1,2.28-3.46,3.64-3.54a75.69,75.69,0,0,1,12.83.7c3.21.38,6.34,2,5,5.71C2600.64,2451.47,2597.71,2452.84,2596.88,2453.57Z" transform="translate(-31.49 -25.31)"/><path d="M2496.77,2482.26c1.54-5.55,2.82-11.3,4.88-16.75.54-1.42,3.56-2.79,5.33-2.66,3,.23,4.58,2.63,3.69,5.77-1.08,3.81-2.35,7.57-3.7,11.3C2505.18,2484.84,2502,2485.47,2496.77,2482.26Z" transform="translate(-31.49 -25.31)"/><path d="M339.75,2589.88c3.26,8.92,3.27,9.06-3.14,10.93-3.77,1.1-7.62,2.29-11.49,2.53-1.62.1-4.43-1.94-4.78-3.45s1.36-4.55,2.86-5.13C328.33,2592.77,333.77,2591.57,339.75,2589.88Z" transform="translate(-31.49 -25.31)"/><path d="M302.3,2600.12c4.31,7.76,4.26,8.26-1.85,10.89-2.71,1.16-5.57,2.43-8.42,2.63-2.59.17-6.62-.21-7.62-1.82-2.38-3.85,1.23-5.88,4.35-7.11C293,2603,297.39,2601.76,302.3,2600.12Z" transform="translate(-31.49 -25.31)"/><path d="M247.62,2626.53c-3-5.66-1.78-8.32,1.85-9.84s7.35-2.84,11.11-4c2.6-.8,5.34-1.1,6.61,2.22,1.15,3,0,5.35-2.88,6.36C258.84,2623.2,253.25,2624.77,247.62,2626.53Z" transform="translate(-31.49 -25.31)"/><path d="M3055.58,2546c-1.88,1.24-3.93,3.66-5.28,3.31a102.25,102.25,0,0,1-15.65-5.65c-.91-.39-1.52-2.88-1.24-4.19s2.14-3.42,2.8-3.25c5.93,1.58,11.79,3.47,17.56,5.57C3054.56,2542.1,3054.77,2544,3055.58,2546Z" transform="translate(-31.49 -25.31)"/><path d="M2696.14,2458.87c5.62.57,11,.66,16,1.85,1.88.43,4.24,3.31,4.48,5.3.42,3.58-2.85,4-5.64,3.64-4-.49-7.88-1.24-11.81-1.95C2694.65,2466.89,2694.22,2464,2696.14,2458.87Z" transform="translate(-31.49 -25.31)"/><path d="M2850.68,2480.86c5.74.67,10.62,1.1,15.44,1.87,2.73.43,5.1,1.71,4.81,5.12-.31,3.63-3.2,4.06-5.79,3.78-4.54-.49-9.21-1-13.46-2.53S2848.44,2484.21,2850.68,2480.86Z" transform="translate(-31.49 -25.31)"/><path d="M3158,2597.83l-17.54-9.55c.36-5,2.25-7.52,6.84-5.73a56.84,56.84,0,0,1,12.09,6.21C3163,2591.34,3162.93,2594.64,3158,2597.83Z" transform="translate(-31.49 -25.31)"/><path d="M435.34,2595.45c4.75,1.67,9.23,2.84,13.29,4.87,1.61.8,3.59,4.45,3.08,5.16-1.3,1.84-4.33,4.24-5.88,3.77a73.27,73.27,0,0,1-14.3-6.51c-.83-.46-1.3-3.33-.69-4.26C431.76,2597.09,433.79,2596.42,435.34,2595.45Z" transform="translate(-31.49 -25.31)"/><path d="M486,2620.74c-.11,2.9-3.61,5.41-6.47,4.08a105,105,0,0,1-13-7.36c-1-.67-1.7-3-1.36-4.25a5.68,5.68,0,0,1,3.36-3.14c3.31-1.1,15.66,5.46,17,8.75A11.17,11.17,0,0,1,486,2620.74Z" transform="translate(-31.49 -25.31)"/><path d="M2556.27,2448.06c-5.65-1.22-9.94-1.73-13.87-3.2-1.45-.54-2.74-3.33-2.78-5.13,0-1.05,2.56-3.08,4-3.08,4.23,0,8.45.91,12.69,1.31,3.51.33,6.09,2.15,5,5.57C2560.55,2445.63,2557.53,2447,2556.27,2448.06Z" transform="translate(-31.49 -25.31)"/><path d="M2792.42,2471.48c2,5.26,1.34,8.53-3.1,8.53a73.44,73.44,0,0,1-15.42-2.09c-1.22-.27-2.84-2.9-2.65-4.21s2.34-3.64,3.59-3.62C2780.68,2470.19,2786.5,2471,2792.42,2471.48Z" transform="translate(-31.49 -25.31)"/><path d="M2618.15,2448.68c6.63-1.91,12.59,1,18.64,1.75,1.12.14,2.76,2.92,2.62,4.33s-2.25,3.65-3.48,3.64a65.49,65.49,0,0,1-14.67-1.43C2617.17,2456,2617.42,2452.4,2618.15,2448.68Z" transform="translate(-31.49 -25.31)"/><path d="M2753.9,2475.27c-5.42-.58-10.94-.75-16.22-1.95-1.83-.42-3.08-3.38-4.59-5.17,2-1.26,4-3.61,6-3.55a38.83,38.83,0,0,1,12.39,2.54c1.8.68,2.83,3.42,4.21,5.22Z" transform="translate(-31.49 -25.31)"/><path d="M2668,2464.07c-2.36-.55-6-1-9.27-2.37a5.41,5.41,0,0,1-2.59-4.52c.23-1.31,2.63-3.24,4-3.2a80.5,80.5,0,0,1,14.58,1.88c1.24.28,2.85,2.82,2.74,4.2s-1.9,3.14-3.38,3.88C2672.74,2464.59,2670.85,2464.07,2668,2464.07Z" transform="translate(-31.49 -25.31)"/><path d="M2979.59,2518.89c-5.23-1.83-9.74-3.08-13.92-5a5.44,5.44,0,0,1-2.32-4.67c.25-1.32,2.9-3.41,4-3.13a120.78,120.78,0,0,1,15.87,5.55c.95.4,1.93,3.49,1.43,4.06C2983.29,2517.15,2981.17,2517.94,2979.59,2518.89Z" transform="translate(-31.49 -25.31)"/><path d="M3068.38,2555.14c1.61-1.26,3.39-3.54,4.33-3.23a175.87,175.87,0,0,1,17.19,6.8c.67.3,1.21,2.87.71,3.45-1.18,1.39-3.4,3.44-4.54,3.09a131.45,131.45,0,0,1-15.51-6.29C3069.64,2558.54,3069.31,2556.85,3068.38,2555.14Z" transform="translate(-31.49 -25.31)"/><path d="M3105.49,2574.65c.43-6.52,2.15-9.13,7.59-6.9,3.92,1.61,8.1,2.69,11.87,4.58,1.27.64,2.59,3.37,2.18,4.56s-3.09,2.83-4.42,2.55C3117.05,2578.23,3111.52,2576.39,3105.49,2574.65Z" transform="translate(-31.49 -25.31)"/><path d="M2946.47,2501.57c-5.67,0-11.61.49-17.42-.14-5-.54-5.5-4-2.85-9,5.51.53,11.38.9,17.18,1.74C2947.25,2494.77,2948,2497.47,2946.47,2501.57Z" transform="translate(-31.49 -25.31)"/><path d="M2818.17,2475.78c3.24.5,6.67.5,9.64,1.67a6.52,6.52,0,0,1,3.38,5c0,1.27-2.89,3.57-4.42,3.51a46.43,46.43,0,0,1-12.46-2.23c-1.73-.56-4-3-4-4.54,0-3.46,3.14-3.5,5.88-3.3l2,.13Z" transform="translate(-31.49 -25.31)"/><path d="M2997.72,2524.46c.44-3.78,2.66-5.59,5.44-4.49a105.71,105.71,0,0,1,14.73,7.59c.94.56,1.65,3.53,1.09,4.18-1,1.2-3.52,2.48-4.68,2C3008.38,2531.28,3002,2529.36,2997.72,2524.46Z" transform="translate(-31.49 -25.31)"/><path d="M2484.23,2560.22c-2.8-1.46-4.69-1.83-5.47-3-2.12-3.09,2.11-18.07,5.37-20,2.78-1.65,6.13.63,5.41,4.45C2488.4,2547.69,2486.22,2553.48,2484.23,2560.22Z" transform="translate(-31.49 -25.31)"/><path d="M2474.44,2595.73c-8.55-3.21-8.59-4.1-1.63-21.44,5.31-.93,7.45,2,6.51,6.67C2478.3,2586,2476.12,2590.82,2474.44,2595.73Z" transform="translate(-31.49 -25.31)"/><path d="M3177.25,2598.41c8.25-1,13.54,3.69,19.06,7.49.84.58.91,3,.52,4.4-.24.84-2.37,2-3.07,1.71a168.07,168.07,0,0,1-16.4-8C3176.58,2603.53,3177.25,2600.54,3177.25,2598.41Z" transform="translate(-31.49 -25.31)"/><path d="M2909.43,2494.77c-7.23,2.78-13.34,1.67-19.24-.83-1.16-.49-2.67-2.7-2.37-3.56.52-1.53,2.36-3.79,3.53-3.73a79.58,79.58,0,0,1,15.61,2.29C2908.16,2489.25,2908.57,2492.59,2909.43,2494.77Z" transform="translate(-31.49 -25.31)"/><path d="M2508,2449c.7-13.9,3.29-16.89,11.94-15.34,1.79.32,3.8,2.22,4.63,3.91.4.82-1.48,3.14-2.76,4.29a31.32,31.32,0,0,1-6.18,4.17A75.88,75.88,0,0,1,2508,2449Z" transform="translate(-31.49 -25.31)"/><path d="M2466.18,2624.07c-3.13-3.1-5.72-4.49-5.79-6a11.9,11.9,0,0,1,2.49-7.06c1.78-2.39,6.41-.51,6.39,2.78C2469.25,2616.44,2467.75,2619.1,2466.18,2624.07Z" transform="translate(-31.49 -25.31)"/><path d="M3224.61,2618.89c-2.51,2.29-3.64,4.16-5.1,4.47-3.08.64-7.62-2.93-6.84-5.31.54-1.67,3.14-4.08,4.33-3.83C3219.39,2614.72,3221.45,2616.82,3224.61,2618.89Z" transform="translate(-31.49 -25.31)"/></svg>